<?xml version="1.0" encoding="UTF-8"?>
<!DOCTYPE svg PUBLIC "-//W3C//DTD SVG 1.1//EN" "http://www.w3.org/Graphics/SVG/1.1/DTD/svg11.dtd">
<svg xmlns="http://www.w3.org/2000/svg" version="1.1" width="512px" height="512px" style="shape-rendering:geometricPrecision; text-rendering:geometricPrecision; image-rendering:optimizeQuality; fill-rule:evenodd; clip-rule:evenodd" xmlns:xlink="http://www.w3.org/1999/xlink">
<g><path style="opacity:0.946" fill="#010100" d="M 95.5,-0.5 C 100.167,-0.5 104.833,-0.5 109.5,-0.5C 113.685,1.49416 117.518,4.16083 121,7.5C 125.667,14.8333 130.333,22.1667 135,29.5C 142.591,44.8856 139.091,57.0523 124.5,66C 115.282,69.7784 106.615,68.7784 98.5,63C 90.2381,54.0749 82.7381,44.5749 76,34.5C 72.4106,21.5154 76.244,11.3487 87.5,4C 90.0993,2.20496 92.7659,0.704964 95.5,-0.5 Z"/></g>
<g><path style="opacity:0.985" fill="#030202" d="M 286.5,-0.5 C 296.833,-0.5 307.167,-0.5 317.5,-0.5C 376.136,10.3007 411.636,44.9674 424,103.5C 426.334,120.155 425.501,136.655 421.5,153C 421.833,153.833 422.167,154.667 422.5,155.5C 445.477,164.646 459.644,181.313 465,205.5C 466.189,226.144 466.856,246.81 467,267.5C 484.096,270.93 494.096,281.263 497,298.5C 497.167,317 497.333,335.5 497.5,354C 497.631,374.535 497.131,395.035 496,415.5C 491.185,429.819 481.352,438.153 466.5,440.5C 466.62,453.066 464.12,465.066 459,476.5C 456.292,481.94 452.126,483.607 446.5,481.5C 445.878,480.373 445.045,479.373 444,478.5C 443.833,477.167 443.667,475.833 443.5,474.5C 445.293,468.891 447.126,463.224 449,457.5C 450.131,451.888 450.631,446.221 450.5,440.5C 437.829,440.667 425.162,440.5 412.5,440C 380.152,432.987 362.819,412.987 360.5,380C 361.883,353.23 374.883,334.563 399.5,324C 403.723,322.528 408.057,321.528 412.5,321C 425.162,320.5 437.829,320.333 450.5,320.5C 452.866,290.02 439.533,270.52 410.5,262C 325.87,260.513 241.203,260.013 156.5,260.5C 145.104,260.909 133.77,260.409 122.5,259C 112.996,256.335 104.829,251.501 98,244.5C 97.3333,318.167 97.3333,391.833 98,465.5C 101.57,480.069 110.403,489.902 124.5,495C 141.11,496.441 157.777,496.941 174.5,496.5C 174.5,495.5 174.5,494.5 174.5,493.5C 174.667,473.164 174.5,452.831 174,432.5C 168.631,426.964 163.131,421.63 157.5,416.5C 157.134,415.305 156.301,414.639 155,414.5C 136.548,422.131 122.881,417.131 114,399.5C 109.226,380.88 115.726,368.047 133.5,361C 141.605,359.623 149.271,360.789 156.5,364.5C 166.968,371.781 171.135,381.781 169,394.5C 167.884,397.82 167.217,401.153 167,404.5C 174.698,411.864 182.031,419.53 189,427.5C 189.5,450.498 189.667,473.498 189.5,496.5C 197.5,496.5 205.5,496.5 213.5,496.5C 213.5,451.833 213.5,407.167 213.5,362.5C 196.63,356.445 189.797,344.445 193,326.5C 199.711,309.894 211.877,303.394 229.5,307C 249.162,316.319 254.329,330.819 245,350.5C 240.961,356.19 235.628,360.19 229,362.5C 228.5,407.165 228.333,451.832 228.5,496.5C 288.168,496.667 347.834,496.5 407.5,496C 415.18,494.317 422.513,491.817 429.5,488.5C 432.218,488.695 434.551,489.695 436.5,491.5C 438.002,495.159 437.668,498.659 435.5,502C 427.809,506.279 419.809,509.446 411.5,511.5C 316.167,511.5 220.833,511.5 125.5,511.5C 100.292,504.787 85.7924,488.453 82,462.5C 81.3333,375.5 81.3333,288.5 82,201.5C 87.978,168.533 107.811,151.699 141.5,151C 151.856,137.804 164.189,126.971 178.5,118.5C 183.083,66.7933 208.749,29.96 255.5,8C 265.672,4.07498 276.006,1.24165 286.5,-0.5 Z"/></g>
<g><path style="opacity:1" fill="#f9cb61" d="M 383.5,95.5 C 382.284,90.738 380.284,86.4047 377.5,82.5C 380.651,79.8639 381.818,76.5305 381,72.5C 354.487,35.6567 318.987,22.49 274.5,33C 243.573,43.5938 223.073,64.4272 213,95.5C 211.892,99.0863 211.392,102.753 211.5,106.5C 206.035,107.266 200.868,108.933 196,111.5C 200.809,71.3496 221.309,42.1829 257.5,24C 294.953,8.55439 330.619,11.8877 364.5,34C 406.909,67.9105 419.409,110.744 402,162.5C 393.432,182.733 380.099,199.067 362,211.5C 361.046,206.441 359.88,201.441 358.5,196.5C 390.068,170.131 400.735,137.131 390.5,97.5C 388.49,95.8287 386.157,95.162 383.5,95.5 Z"/></g>
<g><path style="opacity:1" fill="#f9db7a" d="M 99.5,14.5 C 103.192,13.9712 106.358,14.9712 109,17.5C 113.918,25.0001 118.584,32.6667 123,40.5C 124.26,45.8138 122.426,49.6471 117.5,52C 114.366,52.7901 111.366,52.4568 108.5,51C 102.667,43.8333 96.8333,36.6667 91,29.5C 90.3333,26.8333 90.3333,24.1667 91,21.5C 93.9958,19.2674 96.8292,16.9341 99.5,14.5 Z"/></g>
<g><path style="opacity:1" fill="#fcdd7b" d="M 377.5,82.5 C 380.284,86.4047 382.284,90.738 383.5,95.5C 381.871,96.6253 380.371,97.9586 379,99.5C 383.602,123.085 379.602,145.085 367,165.5C 363.414,171.091 359.08,176.091 354,180.5C 350.223,172.445 346.056,164.611 341.5,157C 351.571,139.57 348.571,124.903 332.5,113C 337.954,101.177 335.954,90.844 326.5,82C 324.182,80.0073 321.516,78.8406 318.5,78.5C 318.666,72.8236 318.499,67.1569 318,61.5C 312.885,55.9247 308.219,56.2581 304,62.5C 303.501,67.1548 303.334,71.8215 303.5,76.5C 301.167,76.5 298.833,76.5 296.5,76.5C 296.666,71.8215 296.499,67.1548 296,62.5C 291.383,55.8483 286.717,55.8483 282,62.5C 281.501,67.1548 281.334,71.8215 281.5,76.5C 275.379,76.0899 269.379,76.5899 263.5,78C 259.885,81.6591 259.552,85.6591 262.5,90C 263.745,90.7914 265.078,91.2914 266.5,91.5C 268.265,92.4614 270.265,92.7947 272.5,92.5C 272.5,97.5 272.5,102.5 272.5,107.5C 257.379,104.229 242.046,102.562 226.5,102.5C 240.924,61.2877 269.924,42.121 313.5,45C 328.072,47.1208 341.072,52.7874 352.5,62C 359.202,68.1005 365.202,74.7672 370.5,82C 372.81,82.4966 375.143,82.6633 377.5,82.5 Z"/></g>
<g><path style="opacity:0.949" fill="#010100" d="M 51.5,59.5 C 55.1602,60.1926 58.8269,61.026 62.5,62C 71.1667,66.6667 79.8333,71.3333 88.5,76C 98.6515,86.2759 100.152,97.7759 93,110.5C 85.4026,119.587 75.9026,122.42 64.5,119C 56.5,116 48.5,113 40.5,110C 26.872,101.667 23.372,90.1669 30,75.5C 34.2872,66.1238 41.4539,60.7905 51.5,59.5 Z"/></g>
<g><path style="opacity:1" fill="#f8da7a" d="M 49.5,75.5 C 52.2706,75.4207 54.9373,75.9207 57.5,77C 64.8333,81 72.1667,85 79.5,89C 83.3203,92.9553 83.487,97.122 80,101.5C 78.3805,103.726 76.2138,105.06 73.5,105.5C 63.9784,102.493 54.6451,98.9929 45.5,95C 42.6061,92.0913 41.7728,88.5913 43,84.5C 44.222,80.6856 46.3887,77.6856 49.5,75.5 Z"/></g>
<g><path style="opacity:1" fill="#958349" d="M 266.5,91.5 C 268.833,91.5 271.167,91.5 273.5,91.5C 273.821,97.0262 273.488,102.36 272.5,107.5C 272.5,102.5 272.5,97.5 272.5,92.5C 270.265,92.7947 268.265,92.4614 266.5,91.5 Z"/></g>
<g><path style="opacity:1" fill="#f7d979" d="M 288.5,91.5 C 296.84,91.3336 305.173,91.5003 313.5,92C 320.392,94.851 322.225,99.6843 319,106.5C 317.421,108.041 315.587,109.208 313.5,110C 305.173,110.5 296.84,110.666 288.5,110.5C 288.5,104.167 288.5,97.8333 288.5,91.5 Z"/></g>
<g><path style="opacity:1" fill="#facc62" d="M 224.5,118.5 C 272.423,114.691 308.923,133.024 334,173.5C 346.167,196.171 350.001,220.171 345.5,245.5C 340.5,245.5 335.5,245.5 330.5,245.5C 337.524,198.382 320.191,163.549 278.5,141C 244.327,126.578 212.327,130.244 182.5,152C 153.46,176.613 142.126,207.78 148.5,245.5C 143.5,245.5 138.5,245.5 133.5,245.5C 127.277,187.76 150.61,147.26 203.5,124C 210.509,121.666 217.509,119.833 224.5,118.5 Z"/></g>
<g><path style="opacity:1" fill="#f4d677" d="M 311.5,126.5 C 321.063,123.406 327.897,126.406 332,135.5C 332.755,138.303 332.422,140.97 331,143.5C 324.936,137.236 318.436,131.569 311.5,126.5 Z"/></g>
<g><path style="opacity:0.951" fill="#010100" d="M 52.5,136.5 C 76.1647,134.332 86.998,144.999 85,168.5C 81.4264,178.74 74.2597,184.573 63.5,186C 52.9569,188.536 42.2903,189.536 31.5,189C 18.602,184.07 12.602,174.57 13.5,160.5C 14.4298,150.417 19.4298,143.25 28.5,139C 36.6176,137.968 44.6176,137.135 52.5,136.5 Z"/></g>
<g><path style="opacity:1" fill="#fcdd7b" d="M 241.5,166.5 C 240.515,170.634 240.182,174.968 240.5,179.5C 238.5,179.5 236.5,179.5 234.5,179.5C 234.818,174.968 234.485,170.634 233.5,166.5C 230.798,161.426 226.798,160.259 221.5,163C 220.177,163.816 219.511,164.983 219.5,166.5C 218.515,170.634 218.182,174.968 218.5,179.5C 213.305,179.179 208.305,179.513 203.5,180.5C 198.458,182.047 196.625,185.38 198,190.5C 198.833,192.667 200.333,194.167 202.5,195C 205.146,195.497 207.813,195.664 210.5,195.5C 210.5,212.167 210.5,228.833 210.5,245.5C 195.163,245.667 179.83,245.5 164.5,245C 157.11,212.503 166.11,185.503 191.5,164C 222.933,142.375 254.599,142.041 286.5,163C 312.736,184.535 322.402,212.035 315.5,245.5C 305.167,245.5 294.833,245.5 284.5,245.5C 285.042,232.916 280.042,223.25 269.5,216.5C 276.102,200.713 271.769,189.046 256.5,181.5C 255.915,175.421 255.082,169.421 254,163.5C 248.656,160.189 244.49,161.189 241.5,166.5 Z"/></g>
<g><path style="opacity:1" fill="#f9db7a" d="M 35.5,152.5 C 45.5056,152.334 55.5056,152.5 65.5,153C 69.6194,155.748 71.1194,159.581 70,164.5C 68.8333,167 67,168.833 64.5,170C 54.5246,171.902 44.5246,173.235 34.5,174C 29.7409,169.509 28.2409,164.009 30,157.5C 31.4055,155.256 33.2389,153.59 35.5,152.5 Z"/></g>
<g><path style="opacity:1" fill="#5563c7" d="M 118.5,202.5 C 113.895,204.471 109.562,206.971 105.5,210C 102.906,212.086 100.906,214.586 99.5,217.5C 94.0286,191.801 104.029,175.135 129.5,167.5C 130.167,167.833 130.833,168.167 131.5,168.5C 125.558,179.341 121.225,190.674 118.5,202.5 Z"/></g>
<g><path style="opacity:1" fill="#928048" d="M 233.5,166.5 C 234.485,170.634 234.818,174.968 234.5,179.5C 236.5,179.5 238.5,179.5 240.5,179.5C 240.182,174.968 240.515,170.634 241.5,166.5C 241.5,171.167 241.5,175.833 241.5,180.5C 238.833,180.5 236.167,180.5 233.5,180.5C 233.5,175.833 233.5,171.167 233.5,166.5 Z"/></g>
<g><path style="opacity:1" fill="#5564c8" d="M 450.5,226.5 C 438.086,208.289 420.753,198.956 398.5,198.5C 405.134,189.567 410.467,179.9 414.5,169.5C 440.871,179.211 452.871,198.211 450.5,226.5 Z"/></g>
<g><path style="opacity:1" fill="#a49051" d="M 219.5,166.5 C 219.5,171.167 219.5,175.833 219.5,180.5C 214.167,180.5 208.833,180.5 203.5,180.5C 208.305,179.513 213.305,179.179 218.5,179.5C 218.182,174.968 218.515,170.634 219.5,166.5 Z"/></g>
<g><path style="opacity:1" fill="#fdde7c" d="M 225.5,195.5 C 234.506,195.334 243.506,195.5 252.5,196C 259.167,201.667 259.167,207.333 252.5,213C 243.506,213.5 234.506,213.666 225.5,213.5C 225.5,207.5 225.5,201.5 225.5,195.5 Z"/></g>
<g><path style="opacity:1" fill="#3c4ec2" d="M 398.5,198.5 C 420.753,198.956 438.086,208.289 450.5,226.5C 450.667,240.504 450.5,254.504 450,268.5C 437.92,254.909 422.754,247.409 404.5,246C 389.837,245.5 375.17,245.333 360.5,245.5C 361.025,239.832 361.691,234.165 362.5,228.5C 376.089,220.377 388.089,210.377 398.5,198.5 Z"/></g>
<g><path style="opacity:1" fill="#3b4dbe" d="M 118.5,202.5 C 117.905,215.159 117.405,227.825 117,240.5C 107.772,235.36 101.938,227.693 99.5,217.5C 100.906,214.586 102.906,212.086 105.5,210C 109.562,206.971 113.895,204.471 118.5,202.5 Z"/></g>
<g><path style="opacity:1" fill="#fadc7a" d="M 225.5,228.5 C 236.838,228.333 248.172,228.5 259.5,229C 267.22,231.878 270.553,237.378 269.5,245.5C 254.833,245.5 240.167,245.5 225.5,245.5C 225.5,239.833 225.5,234.167 225.5,228.5 Z"/></g>
<g><path style="opacity:1" fill="#7fb4fb" d="M 156.5,260.5 C 156.5,295.167 156.5,329.833 156.5,364.5C 149.271,360.789 141.605,359.623 133.5,361C 115.726,368.047 109.226,380.88 114,399.5C 122.881,417.131 136.548,422.131 155,414.5C 156.301,414.639 157.134,415.305 157.5,416.5C 156.834,423.993 156.5,431.659 156.5,439.5C 154.631,454.666 157.131,468.999 164,482.5C 167.002,486.668 170.502,490.335 174.5,493.5C 174.5,494.5 174.5,495.5 174.5,496.5C 157.777,496.941 141.11,496.441 124.5,495C 110.403,489.902 101.57,480.069 98,465.5C 97.3333,391.833 97.3333,318.167 98,244.5C 104.829,251.501 112.996,256.335 122.5,259C 133.77,260.409 145.104,260.909 156.5,260.5 Z"/></g>
<g><path style="opacity:1" fill="#9cc5fa" d="M 156.5,260.5 C 241.203,260.013 325.87,260.513 410.5,262C 439.533,270.52 452.866,290.02 450.5,320.5C 437.829,320.333 425.162,320.5 412.5,321C 408.057,321.528 403.723,322.528 399.5,324C 374.883,334.563 361.883,353.23 360.5,380C 362.819,412.987 380.152,432.987 412.5,440C 425.162,440.5 437.829,440.667 450.5,440.5C 450.631,446.221 450.131,451.888 449,457.5C 447.126,463.224 445.293,468.891 443.5,474.5C 443.667,475.833 443.833,477.167 444,478.5C 445.045,479.373 445.878,480.373 446.5,481.5C 444.053,485.737 440.719,489.07 436.5,491.5C 434.551,489.695 432.218,488.695 429.5,488.5C 422.513,491.817 415.18,494.317 407.5,496C 347.834,496.5 288.168,496.667 228.5,496.5C 228.333,451.832 228.5,407.165 229,362.5C 235.628,360.19 240.961,356.19 245,350.5C 254.329,330.819 249.162,316.319 229.5,307C 211.877,303.394 199.711,309.894 193,326.5C 189.797,344.445 196.63,356.445 213.5,362.5C 213.5,407.167 213.5,451.833 213.5,496.5C 205.5,496.5 197.5,496.5 189.5,496.5C 189.667,473.498 189.5,450.498 189,427.5C 182.031,419.53 174.698,411.864 167,404.5C 167.217,401.153 167.884,397.82 169,394.5C 171.135,381.781 166.968,371.781 156.5,364.5C 156.5,329.833 156.5,295.167 156.5,260.5 Z"/></g>
<g><path style="opacity:1" fill="#f9cb61" d="M 465.5,283.5 C 477.936,286.689 483.103,294.689 481,307.5C 478.274,314.775 473.108,319.108 465.5,320.5C 465.5,308.167 465.5,295.833 465.5,283.5 Z"/></g>
<g><path style="opacity:1" fill="#3b4cbc" d="M 217.5,321.5 C 222.208,321.008 222.708,322.341 219,325.5C 216.567,333.581 217.4,341.247 221.5,348.5C 212.66,347.994 207.66,343.327 206.5,334.5C 207.625,327.864 211.292,323.531 217.5,321.5 Z"/></g>
<g><path style="opacity:1" fill="#5463c6" d="M 217.5,321.5 C 224.791,319.892 230.291,322.558 234,329.5C 235.934,340.036 231.767,346.369 221.5,348.5C 217.4,341.247 216.567,333.581 219,325.5C 222.708,322.341 222.208,321.008 217.5,321.5 Z"/></g>
<g><path style="opacity:1" fill="#252012" d="M 480.5,330.5 C 480.56,329.957 480.893,329.624 481.5,329.5C 482.829,355.664 482.829,381.664 481.5,407.5C 481.831,381.661 481.498,355.995 480.5,330.5 Z"/></g>
<g><path style="opacity:1" fill="#fbdd7b" d="M 480.5,330.5 C 481.498,355.995 481.831,381.661 481.5,407.5C 480.215,416.954 474.882,422.788 465.5,425C 448.5,425.667 431.5,425.667 414.5,425C 390.018,419.857 377.018,404.857 375.5,380C 377.167,356.99 389.167,342.323 411.5,336C 430.5,335.667 449.5,335.333 468.5,335C 472.789,334.183 476.789,332.683 480.5,330.5 Z"/></g>
<g><path style="opacity:1" fill="#040303" d="M 413.5,351.5 C 437.694,350.859 449.194,362.526 448,386.5C 442.907,402.811 431.74,410.311 414.5,409C 396.736,403.326 389.236,391.16 392,372.5C 395.751,361.915 402.917,354.915 413.5,351.5 Z"/></g>
<g><path style="opacity:1" fill="#5563c7" d="M 418.5,366.5 C 431.519,367.85 436.019,374.85 432,387.5C 427.969,393.122 422.802,395.122 416.5,393.5C 417.239,393.631 417.906,393.464 418.5,393C 413.191,384.173 413.191,375.339 418.5,366.5 Z"/></g>
<g><path style="opacity:1" fill="#3b4dbd" d="M 418.5,366.5 C 413.191,375.339 413.191,384.173 418.5,393C 417.906,393.464 417.239,393.631 416.5,393.5C 407.547,390.261 404.38,383.928 407,374.5C 409.38,369.728 413.213,367.061 418.5,366.5 Z"/></g>
<g><path style="opacity:1" fill="#3c4dbf" d="M 141.5,375.5 C 136.191,384.286 136.191,393.12 141.5,402C 140.207,402.49 138.873,402.657 137.5,402.5C 128.527,399.221 125.36,392.887 128,383.5C 130.896,378.135 135.396,375.468 141.5,375.5 Z"/></g>
<g><path style="opacity:1" fill="#5463c6" d="M 141.5,375.5 C 151.818,377.117 155.985,383.117 154,393.5C 150.806,401.175 145.306,404.175 137.5,402.5C 138.873,402.657 140.207,402.49 141.5,402C 136.191,393.12 136.191,384.286 141.5,375.5 Z"/></g>
<g><path style="opacity:1" fill="#9bc4f9" d="M 157.5,416.5 C 163.131,421.63 168.631,426.964 174,432.5C 174.5,452.831 174.667,473.164 174.5,493.5C 170.502,490.335 167.002,486.668 164,482.5C 157.131,468.999 154.631,454.666 156.5,439.5C 156.5,431.659 156.834,423.993 157.5,416.5 Z"/></g>
</svg>
